<svg xmlns="http://www.w3.org/2000/svg" width="1001" height="626.289" viewBox="0 0 1001 626.289">
  <g id="undraw_destinations_fpv7" transform="translate(0.001 0)">
    <path id="Path_1" data-name="Path 1" d="M1073.9,348.107C1037.174,203.676,910.259,99.417,761.29,95.235c-78.757-2.21-161.631,23.909-221.969,115.312-107.86,163.392,6.628,276.3,86.446,329.953A499.448,499.448,0,0,1,729,633.286c53.915,63.978,157.634,143.481,281.16,18.913C1099.7,561.911,1098.372,444.312,1073.9,348.107Z" transform="translate(-87.187 -95.108)" fill="#f2f2f2"/>
    <path id="Path_2" data-name="Path 2" d="M188.63,505.214c-.99-1.466-1.962-2.97-2.892-4.472l1.5-.929c.917,1.483,1.877,2.968,2.853,4.414Z" transform="translate(-50.77 -142.715)" fill="#3f3d56"/>
    <path id="Path_3" data-name="Path 3" d="M177.811,464.633c-1.637-3.212-3.158-6.531-4.521-9.863l1.633-.669c1.346,3.288,2.846,6.562,4.461,9.731Zm-8.21-20.068c-1.083-3.436-2.034-6.96-2.829-10.474l1.722-.389c.784,3.467,1.723,6.944,2.791,10.333Zm-4.781-21.147c-.5-3.561-.859-7.193-1.066-10.795l1.762-.1c.2,3.554.558,7.137,1.052,10.651Zm.514-21.6-1.764-.041c.085-3.607.319-7.248.7-10.823l1.755.185c-.372,3.527-.6,7.12-.687,10.679Zm2.248-21.265-1.734-.329c.672-3.539,1.5-7.093,2.463-10.563l1.7.471c-.949,3.424-1.767,6.93-2.43,10.422Zm5.716-20.605-1.655-.611c1.248-3.38,2.654-6.751,4.178-10.019l1.6.746c-1.5,3.224-2.892,6.549-4.123,9.883Zm241.683-5.455c-1.38-3.271-2.915-6.528-4.563-9.68l1.564-.818c1.671,3.2,3.227,6.5,4.625,9.812ZM182.345,340.556l-1.532-.875c1.787-3.126,3.728-6.218,5.769-9.191l1.454,1C186.023,334.421,184.108,337.472,182.345,340.556Zm222.727-5.015c-1.9-3-3.95-5.962-6.092-8.8l1.409-1.063c2.171,2.876,4.248,5.877,6.174,8.919ZM194.454,322.919l-1.368-1.115c2.277-2.793,4.7-5.526,7.193-8.122l1.272,1.223C199.087,317.466,196.7,320.163,194.454,322.919Zm197.734-4.449c-2.367-2.653-4.873-5.24-7.448-7.689l1.216-1.279c2.61,2.482,5.149,5.1,7.548,7.792ZM209.278,307.5l-1.168-1.323c2.7-2.383,5.533-4.685,8.42-6.839l1.056,1.414C214.738,302.876,211.942,305.147,209.278,307.5Zm167.409-3.77c-2.768-2.231-5.663-4.374-8.6-6.37l.991-1.461c2.981,2.023,5.914,4.2,8.72,6.456Zm-150.271-9.02-.936-1.5c3.056-1.911,6.226-3.717,9.423-5.367l.809,1.568C232.559,291.041,229.431,292.823,226.417,294.707Zm132.57-2.992c-3.1-1.75-6.308-3.389-9.532-4.872l.738-1.6c3.269,1.5,6.52,3.166,9.662,4.939ZM245.412,284.9l-.677-1.629c3.326-1.381,6.749-2.64,10.174-3.74l.539,1.68C252.07,282.3,248.693,283.542,245.412,284.9Zm94.138-2.129c-3.34-1.212-6.774-2.3-10.206-3.232l.463-1.7c3.479.944,6.959,2.047,10.345,3.276Zm-73.786-4.407-.4-1.719c3.5-.813,7.091-1.489,10.659-2.01l.255,1.746c-3.519.515-7.057,1.182-10.515,1.983Zm53.142-1.2c-3.488-.643-7.053-1.149-10.6-1.5l.176-1.756c3.591.359,7.2.872,10.741,1.523Zm-31.984-1.894-.111-1.761c3.589-.227,7.249-.307,10.845-.242l-.032,1.765c-3.551-.065-7.159.015-10.7.238Z" transform="translate(-48.163 -116.064)" fill="#3f3d56"/>
    <path id="Path_4" data-name="Path 4" d="M454.318,381.788c-.473-1.679-.986-3.372-1.527-5.031l1.678-.547c.548,1.682,1.069,3.4,1.548,5.1Z" transform="translate(-82.185 -128.175)" fill="#3f3d56"/>
    <path id="Path_5" data-name="Path 5" d="M442.092,269.821h-1.765c0-1.766.031-3.558.093-5.325l1.764.061C442.123,266.3,442.092,268.076,442.092,269.821Z" transform="translate(-80.719 -115.034)" fill="#3f3d56"/>
    <path id="Path_6" data-name="Path 6" d="M443.045,234.641l-1.755-.187c.378-3.554.89-7.137,1.52-10.649l1.737.312C443.924,227.587,443.418,231.129,443.045,234.641Zm3.757-20.913-1.71-.436c.883-3.464,1.9-6.936,3.034-10.322l1.674.558c-1.117,3.346-2.126,6.777-3,10.2Zm281.441-18.619c-1.319-3.275-2.775-6.542-4.326-9.711l1.585-.776c1.569,3.206,3.042,6.513,4.377,9.827ZM453.53,193.562l-1.629-.678c1.372-3.3,2.883-6.59,4.492-9.785l1.576.794c-1.589,3.158-3.083,6.411-4.439,9.669ZM718.9,176.022c-1.774-3.049-3.682-6.075-5.672-8.993l1.458-.994c2.014,2.953,3.944,6.014,5.739,9.1Zm-255.814-1.453-1.515-.9c1.829-3.064,3.8-6.105,5.845-9.038l1.447,1.011C466.841,168.536,464.9,171.541,463.091,174.569Zm243.842-16.1c-2.195-2.77-4.514-5.493-6.9-8.095l1.3-1.192c2.409,2.632,4.757,5.388,6.978,8.19Zm-231.666-1.322-1.371-1.112c2.251-2.776,4.63-5.505,7.071-8.111l1.288,1.206C479.842,151.7,477.491,154.4,475.266,157.143Zm217.316-14.356c-2.565-2.429-5.249-4.8-7.977-7.034l1.118-1.364c2.761,2.264,5.476,4.659,8.071,7.116Zm-202.788-1.157-1.2-1.3c2.62-2.426,5.362-4.789,8.149-7.023l1.1,1.377c-2.755,2.208-5.464,4.544-8.053,6.941Zm186.354-12.323c-2.883-2.04-5.876-4-8.9-5.827l.913-1.51c3.056,1.848,6.084,3.832,9,5.9Zm-169.775-.967-1-1.452c2.938-2.028,5.987-3.976,9.063-5.79l.9,1.52c-3.039,1.792-6.052,3.718-8.956,5.722Zm151.588-10.034c-3.146-1.607-6.389-3.118-9.639-4.493l.688-1.625c3.289,1.391,6.57,2.921,9.754,4.547Zm-133.29-.753-.785-1.58c3.2-1.587,6.492-3.078,9.794-4.432l.67,1.633c-3.262,1.338-6.519,2.81-9.678,4.379Zm113.713-7.527c-3.338-1.137-6.765-2.166-10.185-3.06l.446-1.707c3.461.9,6.93,1.947,10.307,3.1Zm-94.068-.522-.55-1.677c3.392-1.112,6.869-2.114,10.337-2.98l.427,1.712c-3.426.856-6.863,1.846-10.214,2.944Zm73.506-4.854c-3.47-.644-7.008-1.17-10.516-1.564l.2-1.754c3.55.4,7.13.931,10.642,1.582Zm-52.891-.29-.3-1.739c3.516-.612,7.1-1.1,10.657-1.464l.177,1.756c-3.513.355-7.057.842-10.531,1.447Zm31.773-2.083c-3.534-.143-7.126-.162-10.633-.058l-.053-1.764c3.549-.106,7.183-.087,10.759.059Z" transform="translate(-80.832 -95.729)" fill="#3f3d56"/>
    <path id="Path_7" data-name="Path 7" d="M772.148,224.155c-.472-1.679-.982-3.375-1.515-5.04l1.68-.538c.539,1.685,1.056,3.4,1.534,5.1Z" transform="translate(-119.574 -109.632)" fill="#3f3d56"/>
    <ellipse id="Ellipse_1" data-name="Ellipse 1" cx="29.394" cy="2.205" rx="29.394" ry="2.205" transform="translate(107.435 379.992)" fill="#6c63ff"/>
    <ellipse id="Ellipse_2" data-name="Ellipse 2" cx="29.394" cy="2.205" rx="29.394" ry="2.205" transform="translate(341.85 273.44)" fill="#6c63ff"/>
    <ellipse id="Ellipse_3" data-name="Ellipse 3" cx="29.394" cy="2.205" rx="29.394" ry="2.205" transform="translate(631.378 162.478)" fill="#6c63ff"/>
    <rect id="Rectangle_1" data-name="Rectangle 1" width="124.998" height="1.765" transform="translate(560.742 245.831) rotate(-45)" fill="#3f3d56"/>
    <rect id="Rectangle_2" data-name="Rectangle 2" width="148.439" height="1.765" transform="translate(386.675 257.126)" fill="#3f3d56"/>
    <rect id="Rectangle_3" data-name="Rectangle 3" width="117.412" height="1.765" transform="translate(276.563 352.18) rotate(-45)" fill="#3f3d56"/>
    <rect id="Rectangle_4" data-name="Rectangle 4" width="99.204" height="1.765" transform="translate(152.26 363.678)" fill="#3f3d56"/>
    <rect id="Rectangle_5" data-name="Rectangle 5" width="139.413" height="1.765" transform="translate(26.715 473.43) rotate(-45)" fill="#3f3d56"/>
    <path id="Path_8" data-name="Path 8" d="M185.672,522.41A16.314,16.314,0,1,1,201.986,506.1a16.314,16.314,0,0,1-16.314,16.314Zm0-30.864a14.55,14.55,0,1,0,14.549,14.55,14.55,14.55,0,0,0-14.549-14.55Z" transform="translate(-48.843 -141.535)" fill="#3f3d56"/>
    <path id="Path_9" data-name="Path 9" d="M333.079,522.41A16.314,16.314,0,1,1,349.393,506.1a16.314,16.314,0,0,1-16.314,16.314Zm0-30.864a14.55,14.55,0,1,0,14.549,14.55,14.55,14.55,0,0,0-14.549-14.55Z" transform="translate(-66.183 -141.535)" fill="#3f3d56"/>
    <path id="Path_10" data-name="Path 10" d="M451.338,401.652a16.314,16.314,0,1,1,16.314-16.314,16.314,16.314,0,0,1-16.314,16.314Zm0-30.863a14.549,14.549,0,1,0,14.55,14.549,14.549,14.549,0,0,0-14.55-14.549Z" transform="translate(-80.095 -127.33)" fill="#3f3d56"/>
    <path id="Path_11" data-name="Path 11" d="M654.544,401.652a16.314,16.314,0,1,1,16.314-16.314A16.314,16.314,0,0,1,654.544,401.652Zm0-30.863a14.549,14.549,0,1,0,14.55,14.549,14.549,14.549,0,0,0-14.55-14.549Z" transform="translate(-103.999 -127.33)" fill="#3f3d56"/>
    <path id="Path_12" data-name="Path 12" d="M779.466,275.9a16.314,16.314,0,1,1,16.314-16.314A16.314,16.314,0,0,1,779.466,275.9Zm0-30.863a14.549,14.549,0,1,0,14.55,14.549,14.549,14.549,0,0,0-14.55-14.549Z" transform="translate(-118.694 -112.537)" fill="#3f3d56"/>
    <path id="Path_13" data-name="Path 13" d="M49.091,658.991A16.314,16.314,0,1,1,65.4,642.677a16.314,16.314,0,0,1-16.314,16.314Zm0-30.864A14.55,14.55,0,1,0,63.64,642.677a14.55,14.55,0,0,0-14.549-14.549Z" transform="translate(-32.777 -157.602)" fill="#3f3d56"/>
    <path id="Path_14" data-name="Path 14" d="M183.928,399.173a29.394,29.394,0,0,0-29.394,29.394c0,16.234,29.394,69.81,29.394,69.81s29.394-53.576,29.394-69.81A29.394,29.394,0,0,0,183.928,399.173Zm0,44.825a15.432,15.432,0,1,1,15.432-15.432A15.432,15.432,0,0,1,183.928,444Z" transform="translate(-47.1 -130.877)" fill="#6c63ff"/>
    <path id="Path_15" data-name="Path 15" d="M449.594,274.251A29.394,29.394,0,0,0,420.2,303.645c0,16.234,29.394,69.81,29.394,69.81s29.394-53.576,29.394-69.81a29.394,29.394,0,0,0-29.395-29.394Zm0,44.825a15.432,15.432,0,1,1,15.432-15.432,15.432,15.432,0,0,1-15.432,15.432Z" transform="translate(-78.351 -116.182)" fill="#6c63ff"/>
    <rect id="Rectangle_6" data-name="Rectangle 6" width="400.184" height="2.156" transform="translate(548.105 624.133)" fill="#2f2e41"/>
    <path id="Path_16" data-name="Path 16" d="M1018.813,162.847c-6.221,18.42-15.761,35.2-35.2,35.2s-34.108-15.792-35.2-35.2c-1.4-24.8,15.313-35.306,35.2-35.2C1007.1,127.765,1026.2,140.987,1018.813,162.847Z" transform="translate(-140.477 -98.935)" fill="#2f2e41"/>
    <rect id="Rectangle_7" data-name="Rectangle 7" width="69.48" height="88.008" transform="translate(807.929 61.132)" fill="#2f2e41"/>
    <path id="Path_17" data-name="Path 17" d="M1028.77,238.7h5.91a52.611,52.611,0,0,1,7.88,43.338c-6.566,24.952-1.313,29.549-1.313,29.549s8.548,27.021-.644,67.733,8.524,51.775,8.524,51.775l-16.416-32.832-9.193-86.676Z" transform="translate(-149.322 -111.999)" fill="#575a89"/>
    <path id="Path_18" data-name="Path 18" d="M1028.77,241.146h5.91a52.611,52.611,0,0,1,7.88,43.338c-6.566,24.952-1.313,29.549-1.313,29.549s8.548,27.021-.644,67.733,8.524,51.775,8.524,51.775l-16.416-32.832-9.193-86.676Z" transform="translate(-149.322 -112.287)" opacity="0.1"/>
    <path id="Path_19" data-name="Path 19" d="M1001.215,202.591s-5.253,21.012-2.627,21.012,11.819,11.163,11.819,11.163l5.91,21.669-4.6,15.759-15.759-3.283-19.7-21.669-5.91-5.91L965.1,222.29s6.566-7.88,1.97-14.446S1001.215,202.591,1001.215,202.591Z" transform="translate(-142.45 -107.739)" fill="#fbbebe"/>
    <path id="Path_20" data-name="Path 20" d="M1001.215,202.591s-5.253,21.012-2.627,21.012,11.819,11.163,11.819,11.163l5.91,21.669-4.6,15.759-15.759-3.283-19.7-21.669-5.91-5.91L965.1,222.29s6.566-7.88,1.97-14.446S1001.215,202.591,1001.215,202.591Z" transform="translate(-142.45 -107.739)" opacity="0.1"/>
    <path id="Path_21" data-name="Path 21" d="M820.1,262.387,805.65,238.748s-15.594-34.5-26.757-22.026S795.8,254.507,795.8,254.507l14.446,19.043Z" transform="translate(-120.237 -109.094)" fill="#fbbebe"/>
    <path id="Path_22" data-name="Path 22" d="M1032.385,499.576,1021.875,576.4s1.313,5.91-11.819,27.579-48.591,68.947-48.591,68.947l-10.506-19.7s12.476-62.381,34.145-75.513l-2.627-94.556Z" transform="translate(-140.787 -140.756)" fill="#fbbebe"/>
    <path id="Path_23" data-name="Path 23" d="M1032.385,499.576,1021.875,576.4s1.313,5.91-11.819,27.579-48.591,68.947-48.591,68.947l-10.506-19.7s12.476-62.381,34.145-75.513l-2.627-94.556Z" transform="translate(-140.787 -140.756)" opacity="0.1"/>
    <path id="Path_24" data-name="Path 24" d="M946.5,666.973l14.446,27.579s-11.819,33.489-7.223,36.772,10.506,32.832-1.97,29.549-22.326-16.416-22.326-18.386,7.223-29.549,3.283-36.115-6.566-8.536-6.566-8.536l-9.85,16.416-3.283-1.97L929.424,684.7s1.97-5.253,9.85-8.536Z" transform="translate(-136.322 -162.379)" fill="#2f2e41"/>
    <path id="Path_25" data-name="Path 25" d="M946.5,666.973l14.446,27.579s-11.819,33.489-7.223,36.772,10.506,32.832-1.97,29.549-22.326-16.416-22.326-18.386,7.223-29.549,3.283-36.115-6.566-8.536-6.566-8.536l-9.85,16.416-3.283-1.97L929.424,684.7s1.97-5.253,9.85-8.536Z" transform="translate(-136.322 -162.379)" opacity="0.1"/>
    <path id="Path_26" data-name="Path 26" d="M979.919,488.677s5.1,72.624-6.063,91.666V674.9l-15.1,1.97s-30.5-50.06-19.337-99.308-11.525-94.4-11.525-94.4Z" transform="translate(-138.073 -140.757)" fill="#fbbebe"/>
    <circle id="Ellipse_4" data-name="Ellipse 4" cx="27.579" cy="27.579" r="27.579" transform="translate(810.502 55.782)" fill="#fbbebe"/>
    <path id="Path_27" data-name="Path 27" d="M989.875,265.774l-27.579-34.8-15.759-10.506L939.968,229l-18.386,5.253s-11.819,2.627-24.3,17.073-34.8,22.982-34.8,22.982L844.1,271.027s-21.669-9.85-21.669-12.476-19.042,17.729-14.446,25.609,14.446,17.729,19.7,22.982,7.223,20.356,39.4,15.759,43.995-20.356,43.995-20.356,5.91,30.205,22.982,36.115,72.887,9.85,72.887,9.85l11.819-39.4s13.133-17.073-4.6-42.025c0,0-.34-13.955-2.246-23.241-.741-3.612-1.72-6.517-3.007-7.621-4.6-3.94-28.892-10.506-28.892-10.506s3.94,13.133,5.91,13.789S992.5,262.49,989.875,265.774Z" transform="translate(-123.884 -109.854)" fill="#575a89"/>
    <path id="Path_28" data-name="Path 28" d="M912.633,477.033c33.068-2.3,52.321,3.119,60.91,7.249A21.775,21.775,0,0,1,978.021,487c.63.532.932.945.932,1.195,0,1.97,45.308,5.91,61.724,1.97s-11.163-88.646-18.386-95.869-3.329-33.659-3.329-33.659-14.4-3.112-18.34-1.8-24.3-1.97-31.519-5.91-16.416-1.313-22.326-2.627c-2.64-.584-3.973.4-4.636,1.674a11.353,11.353,0,0,1-4.491,4.537c-13.94,8.031-25.129,63.556-33.554,94.253C894.9,484.256,912.633,477.033,912.633,477.033Z" transform="translate(-134.963 -125.107)" fill="#2f2e41"/>
    <path id="Path_29" data-name="Path 29" d="M979.96,693.763l2.627,14.446s13.793,19.7,9.849,36.115c0,0,3.283,21.669,15.1,27.579s1.97,19.7-9.193,19.042-21.669.657-22.982-2.627-9.193-35.458-9.193-35.458l-2.156,37.652-6.566.657,2.156-43.561s-5.253-9.85,1.97-26.265l-1.823-25.2S977.989,700.33,979.96,693.763Z" transform="translate(-141.55 -165.531)" fill="#2f2e41"/>
    <path id="Path_30" data-name="Path 30" d="M983.154,496.779a21.775,21.775,0,0,1,4.478,2.719c.348-6.205,2.357-43.732-.053-43.128Z" transform="translate(-144.574 -137.604)" opacity="0.1"/>
    <path id="Path_31" data-name="Path 31" d="M965.012,146.188s-.305-1.7-12.251,2.779-19.105,37.535-13.132,56.946c2.407,7.823.449,13.463-2.747,17.409-11.992,14.809-7.271,37.051,10.2,44.666q.74.322,1.509.637l7.466,4.479s-9.517-12.523-4.754-28.541a82.129,82.129,0,0,0,1.482-42.045c-.546-2.346-1.167-4.764-1.872-7.232-5.973-20.9-3.068-18.49,17.836-39.394,0,0,11.945,8.959,22.4,13.438s19.411,8.959,11.945,23.89S977.7,221.592,989.65,241s13.438,11.945,11.945,19.411h0l-1.493,7.466,8.959-8.959-5.973,11.945s19.411,0,25.383-14.931l2.986,2.986s11.945-20.9-10.452-40.315c0,0-7.466-4.479,2.986-19.411s2.425-47.034-11.014-53.007S965.012,146.188,965.012,146.188Z" transform="translate(-138.349 -100.805)" fill="#2f2e41"/>
    <circle id="Ellipse_5" data-name="Ellipse 5" cx="13.896" cy="13.896" r="13.896" transform="translate(829.236 8.327)" fill="#2f2e41"/>
    <path id="Path_32" data-name="Path 32" d="M969.043,110.042a13.9,13.9,0,0,1,12.505-13.826c-.456-.046-.919-.07-1.388-.07a13.9,13.9,0,1,0,0,27.792c.469,0,.932-.025,1.39-.07a13.9,13.9,0,0,1-12.507-13.826Z" transform="translate(-142.587 -95.23)" fill="#2f2e41"/>
    <path id="Path_33" data-name="Path 33" d="M777.722,154.326a29.394,29.394,0,0,0-29.394,29.394c0,16.234,29.394,69.81,29.394,69.81s29.394-53.576,29.394-69.81a29.394,29.394,0,0,0-29.394-29.394Zm0,44.825a15.432,15.432,0,1,1,15.432-15.432,15.432,15.432,0,0,1-15.432,15.432Z" transform="translate(-116.95 -102.074)" fill="#6c63ff"/>
    <circle id="Ellipse_6" data-name="Ellipse 6" cx="15.905" cy="15.905" r="15.905" transform="translate(407.913 567.359)" fill="#f1f1f1"/>
    <circle id="Ellipse_7" data-name="Ellipse 7" cx="15.905" cy="15.905" r="15.905" transform="translate(506.867 500.083)" fill="#f1f1f1"/>
    <circle id="Ellipse_8" data-name="Ellipse 8" cx="15.905" cy="15.905" r="15.905" transform="translate(384.494 437.44)" fill="#f1f1f1"/>
  </g>
</svg>
